<svg width="14" height="14" viewBox="0 0 14 14" fill="none" xmlns="http://www.w3.org/2000/svg">
<g clip-path="url(#clip0_38_327)">
<path d="M11.1667 0.499512V5.49951" stroke="#222222" stroke-width="1.25" stroke-linecap="round" stroke-linejoin="round"/>
<path d="M9.50012 1.74951H9.91679C10.6071 1.74951 11.1667 1.18987 11.1667 0.499512" stroke="#222222" stroke-width="1.25" stroke-linecap="round" stroke-linejoin="round"/>
<path d="M12.8335 5.49951H9.50012" stroke="#222222" stroke-width="1.25" stroke-linecap="round" stroke-linejoin="round"/>
<path d="M10.4221 11.0933H11.0784C11.8636 11.0933 12.5002 10.4567 12.5002 9.67139C12.5002 8.8861 11.8636 8.24951 11.0784 8.24951L10.4221 8.24952C9.63683 8.24952 9.00024 8.88611 9.00024 9.67139C9.00024 10.4567 9.63684 11.0933 10.4221 11.0933Z" stroke="#222222" stroke-width="1.25" stroke-linecap="round" stroke-linejoin="round"/>
<path d="M12.5001 9.56201V12.187C12.5001 12.9119 11.9125 13.4995 11.1876 13.4995H10.3126C9.74117 13.4995 9.25501 13.1343 9.07483 12.6245" stroke="#222222" stroke-width="1.25" stroke-linecap="round" stroke-linejoin="round"/>
<path d="M6 11L3.5 13.5L1 11" stroke="#222222" stroke-width="1.25" stroke-linecap="round" stroke-linejoin="round"/>
<path d="M3.5 0.500031V13.5" stroke="#222222" stroke-width="1.25" stroke-linecap="round" stroke-linejoin="round"/>
</g>
<defs>
<clipPath id="clip0_38_327">
<rect width="14" height="14" fill="white"/>
</clipPath>
</defs>
</svg>
