<svg width="18" height="18" viewBox="0 0 18 18" fill="none" xmlns="http://www.w3.org/2000/svg">
<path d="M11.8125 2.25003H12.9375C13.3851 2.25003 13.8143 2.42782 14.1307 2.74429C14.4472 3.06076 14.625 3.48998 14.625 3.93753V15.1875C14.625 15.6351 14.4472 16.0643 14.1307 16.3808C13.8143 16.6972 13.3851 16.875 12.9375 16.875H5.0625C4.61495 16.875 4.18572 16.6972 3.86926 16.3808C3.55279 16.0643 3.375 15.6351 3.375 15.1875V3.93753C3.375 3.48998 3.55279 3.06076 3.86926 2.74429C4.18572 2.42782 4.61495 2.25003 5.0625 2.25003H6.1875" stroke="#222222" stroke-width="1.40625" stroke-linejoin="round"/>
<path d="M10.8939 1.12503H7.10613C6.59879 1.12503 6.1875 1.53632 6.1875 2.04366V2.4564C6.1875 2.96374 6.59879 3.37503 7.10613 3.37503H10.8939C11.4012 3.37503 11.8125 2.96374 11.8125 2.4564V2.04366C11.8125 1.53632 11.4012 1.12503 10.8939 1.12503Z" stroke="black" stroke-width="1.40625" stroke-linejoin="round"/>
</svg>
