<svg width="14" height="14" viewBox="0 0 14 14" fill="none" xmlns="http://www.w3.org/2000/svg">
<g clip-path="url(#clip0_38_348)">
<path d="M11.1666 8.49951V13.4995" stroke="#222222" stroke-width="1.25" stroke-linecap="round" stroke-linejoin="round"/>
<path d="M9.5 9.74951H9.91667C10.607 9.74951 11.1666 9.18987 11.1666 8.49951" stroke="#222222" stroke-width="1.25" stroke-linecap="round" stroke-linejoin="round"/>
<path d="M12.8333 13.4995H9.5" stroke="#222222" stroke-width="1.25" stroke-linecap="round" stroke-linejoin="round"/>
<path d="M10.422 3.34424L11.0783 3.34423C11.8635 3.34423 12.5001 2.70764 12.5001 1.92236C12.5001 1.13708 11.8635 0.500482 11.0783 0.500488L10.422 0.500494C9.63671 0.5005 9.00012 1.13709 9.00012 1.92236C9.00012 2.70764 9.63672 3.34424 10.422 3.34424Z" stroke="#222222" stroke-width="1.25" stroke-linecap="round" stroke-linejoin="round"/>
<path d="M12.5 1.81299V4.43799C12.5 5.16286 11.9124 5.75049 11.1875 5.75049H10.3125C9.74105 5.75049 9.25489 5.38526 9.07471 4.87549" stroke="#222222" stroke-width="1.25" stroke-linecap="round" stroke-linejoin="round"/>
<path d="M5.99988 11L3.49988 13.5L0.999878 11" stroke="#222222" stroke-width="1.25" stroke-linecap="round" stroke-linejoin="round"/>
<path d="M3.49988 0.5V13.5" stroke="#222222" stroke-width="1.25" stroke-linecap="round" stroke-linejoin="round"/>
</g>
<defs>
<clipPath id="clip0_38_348">
<rect width="14" height="14" fill="white"/>
</clipPath>
</defs>
</svg>
