<svg width="18" height="18" viewBox="0 0 18 18" fill="none" xmlns="http://www.w3.org/2000/svg">
<path d="M2.53858 9.53847C2.2412 9.53847 2.00012 9.29739 2.00012 9.00001C2.00012 8.70263 2.2412 8.46155 2.53858 8.46155" stroke="#222222" stroke-width="2.15385" stroke-linecap="round" stroke-linejoin="round"/>
<path d="M2.53845 9.53844C2.83583 9.53844 3.07691 9.29736 3.07691 8.99998C3.07691 8.7026 2.83583 8.46152 2.53845 8.46152" stroke="#222222" stroke-width="2.15385" stroke-linecap="round" stroke-linejoin="round"/>
<path d="M9.00013 9.53847C8.70275 9.53847 8.46167 9.29739 8.46167 9.00001C8.46167 8.70263 8.70275 8.46155 9.00013 8.46155" stroke="#222222" stroke-width="2.15385" stroke-linecap="round" stroke-linejoin="round"/>
<path d="M9.00024 9.53847C9.29763 9.53847 9.53871 9.29739 9.53871 9.00001C9.53871 8.70263 9.29763 8.46155 9.00024 8.46155" stroke="#222222" stroke-width="2.15385" stroke-linecap="round" stroke-linejoin="round"/>
<path d="M15.4617 9.53847C15.1643 9.53847 14.9232 9.29739 14.9232 9.00001C14.9232 8.70263 15.1643 8.46155 15.4617 8.46155" stroke="#222222" stroke-width="2.15385" stroke-linecap="round" stroke-linejoin="round"/>
<path d="M15.4617 9.53847C15.7591 9.53847 16.0001 9.29739 16.0001 9.00001C16.0001 8.70263 15.7591 8.46155 15.4617 8.46155" stroke="#222222" stroke-width="2.15385" stroke-linecap="round" stroke-linejoin="round"/>
</svg>
