<svg width="18" height="18" viewBox="0 0 18 18" fill="none" xmlns="http://www.w3.org/2000/svg">
<path d="M1.24449 3.06281L7.1736 9.96891C7.26225 10.0707 7.31152 10.2009 7.31246 10.3359V14.5308C7.31189 14.5896 7.3299 14.647 7.36393 14.6949C7.39797 14.7429 7.44627 14.7788 7.50195 14.7976L10.3197 15.7352C10.3618 15.7493 10.4067 15.7532 10.4506 15.7464C10.4945 15.7397 10.5362 15.7226 10.5721 15.6966C10.6081 15.6705 10.6373 15.6362 10.6574 15.5966C10.6774 15.557 10.6877 15.5132 10.6875 15.4688V10.3359C10.6889 10.2007 10.7388 10.0705 10.8281 9.96891L16.7554 3.06281C16.8167 2.99142 16.8563 2.90395 16.8694 2.81077C16.8825 2.71759 16.8686 2.6226 16.8294 2.53706C16.7902 2.45152 16.7273 2.37902 16.6481 2.32814C16.569 2.27727 16.4769 2.25015 16.3828 2.25H1.61891C1.52466 2.24981 1.43234 2.27669 1.35292 2.32743C1.2735 2.37818 1.21031 2.45066 1.17088 2.53626C1.13145 2.62187 1.11742 2.71699 1.13047 2.81033C1.14352 2.90367 1.1831 2.99131 1.24449 3.06281Z" stroke="#222222" stroke-width="1.25" stroke-linecap="round" stroke-linejoin="round"/>
</svg>
