<svg width="18" height="18" viewBox="0 0 18 18" fill="none" xmlns="http://www.w3.org/2000/svg">
<g clip-path="url(#clip0_38_320)">
<path d="M16.7143 8.35715H11.5714C11.2164 8.35715 10.9286 8.64497 10.9286 9V16.7143C10.9286 17.0693 11.2164 17.3571 11.5714 17.3571H16.7143C17.0693 17.3571 17.3572 17.0693 17.3572 16.7143V9C17.3572 8.64497 17.0693 8.35715 16.7143 8.35715Z" stroke="#222222" stroke-width="1.25" stroke-linecap="round" stroke-linejoin="round"/>
<path d="M16.7143 0.642853H11.5714C11.2164 0.642853 10.9286 0.93067 10.9286 1.28571V3.87C10.9286 4.22503 11.2164 4.51285 11.5714 4.51285H16.7143C17.0693 4.51285 17.3572 4.22503 17.3572 3.87V1.28571C17.3572 0.93067 17.0693 0.642853 16.7143 0.642853Z" stroke="#222222" stroke-width="1.25" stroke-linecap="round" stroke-linejoin="round"/>
<path d="M6.42854 0.642853H1.28568C0.93064 0.642853 0.642822 0.93067 0.642822 1.28571V9C0.642822 9.35503 0.93064 9.64285 1.28568 9.64285H6.42854C6.78357 9.64285 7.07139 9.35503 7.07139 9V1.28571C7.07139 0.93067 6.78357 0.642853 6.42854 0.642853Z" stroke="#222222" stroke-width="1.25" stroke-linecap="round" stroke-linejoin="round"/>
<path d="M6.42854 13.4872H1.28568C0.93064 13.4872 0.642822 13.7749 0.642822 14.13V16.7143C0.642822 17.0693 0.93064 17.3572 1.28568 17.3572H6.42854C6.78357 17.3572 7.07139 17.0693 7.07139 16.7143V14.13C7.07139 13.7749 6.78357 13.4872 6.42854 13.4872Z" stroke="#222222" stroke-width="1.25" stroke-linecap="round" stroke-linejoin="round"/>
</g>
<defs>
<clipPath id="clip0_38_320">
<rect width="18" height="18" fill="white"/>
</clipPath>
</defs>
</svg>
