<svg width="18" height="18" viewBox="0 0 18 18" fill="none" xmlns="http://www.w3.org/2000/svg">
<path d="M6.86695 12.75H4.875C3.97989 12.75 3.12145 12.3944 2.48851 11.7615C1.85558 11.1285 1.5 10.2701 1.5 9.37497C1.5 8.47986 1.85558 7.62142 2.48851 6.98848C3.12145 6.35555 3.97989 5.99997 4.875 5.99997H6.82301M10.802 5.99997H12.75C13.6451 5.99997 14.5036 6.35555 15.1365 6.98848C15.7694 7.62142 16.125 8.47986 16.125 9.37497C16.125 10.2701 15.7694 11.1285 15.1365 11.7615C14.5036 12.3944 13.6451 12.75 12.75 12.75H10.758M5.75637 9.37497H11.9389" stroke="#222222" stroke-width="1.40625" stroke-linecap="round" stroke-linejoin="round"/>
</svg>
