<svg width="18" height="18" viewBox="0 0 18 18" fill="none" xmlns="http://www.w3.org/2000/svg">
<path d="M5.625 5.0625H15.75M5.625 9H15.75M5.625 12.9375H15.75" stroke="#222222" stroke-width="1.25" stroke-linecap="round" stroke-linejoin="round"/>
<path d="M2.8125 5.625C3.12316 5.625 3.375 5.37316 3.375 5.0625C3.375 4.75184 3.12316 4.5 2.8125 4.5C2.50184 4.5 2.25 4.75184 2.25 5.0625C2.25 5.37316 2.50184 5.625 2.8125 5.625Z" stroke="#222222" stroke-width="1.25" stroke-linecap="round" stroke-linejoin="round"/>
<path d="M2.8125 9.5625C3.12316 9.5625 3.375 9.31066 3.375 9C3.375 8.68934 3.12316 8.4375 2.8125 8.4375C2.50184 8.4375 2.25 8.68934 2.25 9C2.25 9.31066 2.50184 9.5625 2.8125 9.5625Z" stroke="#222222" stroke-width="1.25" stroke-linecap="round" stroke-linejoin="round"/>
<path d="M2.8125 13.5C3.12316 13.5 3.375 13.2482 3.375 12.9375C3.375 12.6268 3.12316 12.375 2.8125 12.375C2.50184 12.375 2.25 12.6268 2.25 12.9375C2.25 13.2482 2.50184 13.5 2.8125 13.5Z" stroke="#222222" stroke-width="1.25" stroke-linecap="round" stroke-linejoin="round"/>
</svg>
