<svg width="18" height="18" viewBox="0 0 18 18" fill="none" xmlns="http://www.w3.org/2000/svg">
<g clip-path="url(#clip0_40_58)">
<path d="M6.42854 15.7371L0.642822 17.3571L2.26282 11.5714L12.8571 1.02859C12.9768 0.906134 13.1199 0.808833 13.2777 0.742404C13.4356 0.675973 13.6051 0.641754 13.7764 0.641754C13.9477 0.641754 14.1172 0.675973 14.2751 0.742404C14.4329 0.808833 14.576 0.906134 14.6957 1.02859L16.9714 3.31716C17.0919 3.43668 17.1875 3.5789 17.2528 3.73556C17.3182 3.89224 17.3517 4.06029 17.3517 4.23002C17.3517 4.39975 17.3182 4.5678 17.2528 4.72448C17.1875 4.88116 17.0919 5.02336 16.9714 5.14288L6.42854 15.7371Z" stroke="#222222" stroke-width="1.25" stroke-linecap="round" stroke-linejoin="round"/>
</g>
<defs>
<clipPath id="clip0_40_58">
<rect width="18" height="18" fill="white"/>
</clipPath>
</defs>
</svg>
